<svg xmlns="http://www.w3.org/2000/svg" xmlns:xlink="http://www.w3.org/1999/xlink" version="1.1" x="0px" y="0px" viewBox="0 0 100 80" enable-background="new 0 0 100 100" xml:space="preserve">
  <g>
    <rect x="12.497" y="64.932" fill="#000000" width="75.219" height="0.903"/>
    <path fill="#000000" d="M20.049,61.986c0.471,1.423,1.812,2.451,3.396,2.451c0.577,0,1.12-0.131,1.597-0.373   c-0.478-0.574-0.799-1.291-0.892-2.078H20.049z"/>
    <path fill="#000000" d="M28.105,64.619c1.59,0,2.912-1.129,3.206-2.633h-6.406C25.198,63.49,26.52,64.619,28.105,64.619z"/>
    <path fill="#000000" d="M85.812,55.509h0.006v-5.645c0-0.276-0.224-0.5-0.5-0.5h-3.615v1h3.115v5.018H49.37h-0.3H15.253v-5.018   h3.116v-1h-3.616c-0.276,0-0.5,0.224-0.5,0.5v5.645h0.018c-0.002,0.647,0,1.265,0.03,1.839h-2.246v2.357h2.727   c0.444,0.916,1.27,1.473,2.817,1.473h2.289c0,0.004,0,0.008,0,0.012h4.248c0-0.004,0.002-0.008,0.002-0.012h0.714   c0,0.004-0.002,0.008-0.002,0.012h6.515c0-0.004-0.001-0.008-0.001-0.012h17.371l0,0.006h19.984c0,0.002-0.001,0.004-0.001,0.006   h6.519c0-0.002-0.001-0.004-0.001-0.006h0.718c0,0.002,0.001,0.004,0.001,0.006h4.254c0-0.002,0-0.004,0-0.006h2.282   c1.547,0,2.372-0.559,2.815-1.479h2.736v-2.357h-2.257C85.812,56.772,85.815,56.156,85.812,55.509z"/>
    <path fill="#000000" d="M80.032,61.986h-4.099c-0.086,0.787-0.404,1.504-0.892,2.078c0.474,0.242,1.022,0.373,1.597,0.373   C78.223,64.438,79.57,63.409,80.032,61.986z"/>
    <path fill="#000000" d="M71.973,64.619c1.59,0,2.912-1.129,3.205-2.633h-6.404C69.066,63.49,70.389,64.619,71.973,64.619z"/>
    <rect x="88.855" y="56.792" fill="#000000" width="1.129" height="3.474"/>
    <rect x="10.151" y="56.792" fill="#000000" width="1.129" height="3.474"/>
  <path fill="#000000" d="M28.524,54.473h43.288c4.927,0,8.92-5.213,8.92-11.642s-3.993-11.641-8.92-11.641H56.004v-1.903h-2.582   v-0.525h-3.235v-0.783h1.479c0.155,0,0.283-0.112,0.283-0.25s-0.128-0.25-0.283-0.25h-3.184c-0.156,0-0.284,0.112-0.284,0.25   s0.127,0.25,0.284,0.25h1.479v0.783h-3.044v0.525h-2.582v1.903H28.524c-4.925,0-8.919,5.212-8.919,11.641   S23.599,54.473,28.524,54.473z M27.549,45.905l2.522,2.522l-2.522,2.522l-2.522-2.522L27.549,45.905z"/>
  </g>
</svg>
