<?xml version="1.0" encoding="UTF-8"?>
<svg version="1.1" viewBox="0 0 1200 1000" xmlns="http://www.w3.org/2000/svg">
 <g>
  <path d="m149.96 779.18h902.63v10.836h-902.63z"/>
  <path d="m260.54 471.27c0-17.965 11.184-32.555 25.031-32.555h70.285c13.883 0 25.066 14.594 25.066 32.555v91.078c0 17.965-11.195 32.484-25.066 32.484h-70.285c-13.848 0-25.031-14.52-25.031-32.484zm187.74 0c0-17.965 11.258-32.555 25.141-32.555h70.211c13.883 0 25.152 14.594 25.152 32.555v91.078c0 17.965-11.27 32.484-25.152 32.484h-70.211c-13.883 0-25.141-14.52-25.141-32.484zm152.23-61.297h-389.34c-42.324 0-39.926 34.43-39.926 76.645v158.82h421.19"/>
  <path d="m592.44 664.59h-421.19c-0.15625 38.93 0 69.539 39.926 69.539h382.31"/>
  <path d="m240.59 743.84c5.6523 17.062 21.742 29.41 40.754 29.41 6.9258 0 13.441-1.5703 19.164-4.4883-5.7344-6.8867-9.5898-15.492-10.703-24.926z"/>
  <path d="m289.62 734.27c1.2344-14.82 9.1328-27.695 20.762-35.641-7.668-6.9492-17.844-11.293-29.039-11.293-23.688 0-42.926 19.246-42.926 43.031 0 1.2852 0.070312 2.6289 0.22656 3.8984z"/>
  <path d="m376.37 734.27c-0.98438-20.664-18.086-37.211-39.07-37.211-21 0-38.027 16.547-39.109 37.211z"/>
  <path d="m298.86 743.84c3.5156 18.035 19.379 31.586 38.398 31.586 19.078 0 34.945-13.547 38.473-31.586z"/>
  <path d="m940.45 562.27c0 18.035-11.23 32.555-24.984 32.555h-70.355c-13.836 0-24.996-14.52-24.996-32.555v-90.938c0-18.035 11.16-32.555 24.996-32.555h70.355c13.754 0 24.984 14.52 24.984 32.555zm-187.71 0c0 18.035-11.293 32.555-25.152 32.555h-70.199c-13.934 0-25.164-14.52-25.164-32.555v-90.938c0-18.035 11.23-32.555 25.164-32.555h70.199c13.848 0 25.152 14.52 25.152 32.555zm-162.25 83.16h439.27v-158.75c0-42.359 2.375-76.645-39.898-76.645h-389.36"/>
  <path d="m584.8 734.2h405.06c39.898 0 40.043-30.684 39.898-69.613l-440.91 0.003907"/>
  <path d="m911.21 743.84c-1.043 9.4336-4.8594 18.035-10.703 24.926 5.6875 2.9141 12.266 4.4883 19.164 4.4883 18.996 0 35.172-12.348 40.715-29.41z"/>
  <path d="m911.43 734.27h51.047c0.070313-1.3438 0.15625-2.6172 0.15625-3.8984 0-23.785-19.246-43.031-42.961-43.031-11.16 0-21.406 4.2617-29.051 11.293 11.676 7.9531 19.617 20.887 20.809 35.637z"/>
  <path d="m902.82 734.27c-0.98437-20.664-18.121-37.211-39.145-37.211-20.965 0-38.027 16.547-39.086 37.211z"/>
  <path d="m825.28 743.84c3.5156 18.035 19.379 31.586 38.398 31.586 19.066 0 34.945-13.547 38.461-31.586z"/>
  <path d="m1047.8 635.18c0 5.6875-1.7891 10.32-3.9609 10.32-2.0273 0-3.8164-4.6445-3.8164-10.32v-169.45c0-5.6172 1.7891-10.262 3.8164-10.262 2.1719 0 3.9609 4.6445 3.9609 10.262z"/>
  <path d="m1062.4 635.18c0 5.6875-1.7266 10.32-3.8984 10.32-2.0156 0-3.8047-4.6445-3.8047-10.32v-169.45c0-5.6172 1.7891-10.262 3.8047-10.262 2.1836 0 3.8984 4.6445 3.8984 10.262z"/>
  <path d="m146.48 635.18c0 5.6875-1.7539 10.32-3.8867 10.32-2.0625 0-3.8164-4.6445-3.8164-10.32v-169.45c0-5.6172 1.7539-10.262 3.8164-10.262 2.1367 0 3.8867 4.6445 3.8867 10.262z"/>
  <path d="m161.15 635.18c0 5.6875-1.7539 10.32-3.8867 10.32-2.1016 0-3.8516-4.6445-3.8516-10.32l-0.003906-169.45c0-5.6172 1.7539-10.262 3.8516-10.262 2.1367 0 3.8867 4.6445 3.8867 10.262z"/>
  <path d="m1017.3 688.18h39.227v28.285h-39.227z"/>
  <path d="m1066.3 681.5h13.547v41.688h-13.547z"/>
  <path d="m144.65 688.18h39.254v28.285h-39.254z"/>
  <path d="m121.81 681.5h13.547v41.688h-13.547z"/>
 </g>
</svg>
